<svg xmlns="http://www.w3.org/2000/svg" xmlns:xlink="http://www.w3.org/1999/xlink" width="160" height="160" viewBox="0 0 160 160">
  <defs>
    <clipPath id="clip-button-_Organise">
      <rect width="160" height="160"/>
    </clipPath>
  </defs>
  <g id="button-_Organise" data-name="button- Organise" clip-path="url(#clip-button-_Organise)">
    <g id="Group_189" data-name="Group 189" transform="translate(1765 -1262)">
      <circle id="Ellipse_1" data-name="Ellipse 1" cx="80" cy="80" r="80" transform="translate(-1765 1262)" fill="#fff"/>
      <g id="Layer_2" data-name="Layer 2" transform="translate(-1718.78 1296.85)">
        <g id="Layer_1" data-name="Layer 1" transform="translate(-0.006 0)">
          <path id="Path_418" data-name="Path 418" d="M51.315,10.077a19.266,19.266,0,0,0-19.929,7.085A19.2,19.2,0,0,0,11.3,9.986,14.947,14.947,0,0,0,.008,25.115C.008,42.21,29.238,62.893,30.5,63.762a1.6,1.6,0,0,0,.891.3,1.668,1.668,0,0,0,.914-.3c1.257-.868,30.488-21.552,30.488-38.646A14.9,14.9,0,0,0,51.315,10.077Zm-6.1,38.715A133.836,133.836,0,0,1,31.386,60.516,135.639,135.639,0,0,1,17.674,48.838C8.235,39.7,3.253,31.423,3.253,25.115A11.77,11.77,0,0,1,12.12,13.048a14.627,14.627,0,0,1,3.885-.48,16,16,0,0,1,14.1,8.273,1.623,1.623,0,0,0,1.394.8,1.577,1.577,0,0,0,1.371-.823,16,16,0,0,1,17.643-7.77,11.7,11.7,0,0,1,9.142,11.976C59.611,31.331,54.629,39.6,45.213,48.792Z" transform="translate(0.006 12.092)" fill="#1de9b6" stroke="#1de9b6" stroke-width="4"/>
          <path id="Path_419" data-name="Path 419" d="M22,2.651A2.651,2.651,0,0,0,24.651,5.3a23.563,23.563,0,0,1,23.54,23.54,2.651,2.651,0,0,0,5.3,0A28.865,28.865,0,0,0,24.7,0,2.651,2.651,0,0,0,22,2.651ZM52.053,28.842a1.166,1.166,0,1,1-2.285,0A25.14,25.14,0,0,0,24.628,3.817,1.188,1.188,0,0,1,23.44,2.651a1.188,1.188,0,0,1,1.188-1.165A27.425,27.425,0,0,1,52.053,28.842Z" transform="translate(28.293 0)" fill="#1de9b6" stroke="#1de9b6" stroke-width="1"/>
          <path id="Path_420" data-name="Path 420" d="M39.095,23.9a2.651,2.651,0,1,0,5.3,0A19.837,19.837,0,0,0,24.491,4.09a2.651,2.651,0,1,0,0,5.3A14.535,14.535,0,0,1,39.095,23.9ZM23.417,6.741a1.166,1.166,0,0,1,1.074-1.166A18.283,18.283,0,0,1,42.774,23.859a1.166,1.166,0,0,1-2.285,0,16,16,0,0,0-16-16,1.166,1.166,0,0,1-1.074-1.12Z" transform="translate(28.087 5.258)" fill="#1de9b6" stroke="#1de9b6" stroke-width="1"/>
        </g>
      </g>
    </g>
  </g>
</svg>
